P2
51 43
255
0 0 0 0 0 0 0 0 0 0 0 0 0 0 0 0 0 0 0 0 0 0 0 0 0 0 0 0 0 0 0 0 0 0 0 0 0 0 0 0 0 0 0 0 0 0 0 0 0 0 0 
0 0 0 0 0 0 0 0 0 0 0 0 0 0 0 0 0 0 0 0 0 0 0 0 0 0 0 0 0 0 0 0 0 0 0 0 0 0 0 0 0 0 0 0 0 0 0 0 0 0 0 
0 0 0 0 0 0 0 0 0 0 0 0 0 0 0 0 0 0 0 0 0 0 0 0 0 0 0 0 0 0 0 0 0 0 0 0 0 0 0 0 0 0 0 0 0 0 0 0 0 0 0 

0 0 0 100 100 100 100 100 0 0 0 100 100 100 100 100 0 0 0 255 255 255 255 255 0 0 0 255 255 255 255 255 0 0 0 100 100 100 100 100 0 0 0 255 255 255 255 255 0 0 0 

0 0 0 100 100 100 100 100 0 0 0 100 100 100 100 100 0 0 0 255 255 255 255 255 0 0 0 255 255 255 255 255 0 0 0 100 100 100 100 100 0 0 0 255 255 255 255 255 0 0 0 

0 0 0 100 100 100 100 100 0 0 0 100 100 100 100 100 0 0 0 255 255 255 255 255 0 0 0 255 255 255 255 255 0 0 0 100 100 100 100 100 0 0 0 255 255 255 255 255 0 0 0 

0 0 0 100 100 100 100 100 0 0 0 100 100 100 100 100 0 0 0 255 255 255 255 255 0 0 0 255 255 255 255 255 0 0 0 100 100 100 100 100 0 0 0 255 255 255 255 255 0 0 0 

0 0 0 100 100 100 100 100 0 0 0 100 100 100 100 100 0 0 0 255 255 255 255 255 0 0 0 255 255 255 255 255 0 0 0 100 100 100 100 100 0 0 0 255 255 255 255 255 0 0 0 
0 0 0 0 0 0 0 0 0 0 0 0 0 0 0 0 0 0 0 0 0 0 0 0 0 0 0 0 0 0 0 0 0 0 0 0 0 0 0 0 0 0 0 0 0 0 0 0 0 0 0 
0 0 0 0 0 0 0 0 0 0 0 0 0 0 0 0 0 0 0 0 0 0 0 0 0 0 0 0 0 0 0 0 0 0 0 0 0 0 0 0 0 0 0 0 0 0 0 0 0 0 0 
0 0 0 0 0 0 0 0 0 0 0 0 0 0 0 0 0 0 0 0 0 0 0 0 0 0 0 0 0 0 0 0 0 0 0 0 0 0 0 0 0 0 0 0 0 0 0 0 0 0 0 

0 0 0 100 100 100 100 100 0 0 0 255 255 255 255 255 0 0 0 100 100 100 100 100 0 0 0 255 255 255 255 255 0 0 0 255 255 255 255 255 0 0 0 255 255 255 255 255 0 0 0 

0 0 0 100 100 100 100 100 0 0 0 255 255 255 255 255 0 0 0 100 100 100 100 100 0 0 0 255 255 255 255 255 0 0 0 255 255 255 255 255 0 0 0 255 255 255 255 255 0 0 0 

0 0 0 100 100 100 100 100 0 0 0 255 255 255 255 255 0 0 0 100 100 100 100 100 0 0 0 255 255 255 255 255 0 0 0 255 255 255 255 255 0 0 0 255 255 255 255 255 0 0 0 

0 0 0 100 100 100 100 100 0 0 0 255 255 255 255 255 0 0 0 100 100 100 100 100 0 0 0 255 255 255 255 255 0 0 0 255 255 255 255 255 0 0 0 255 255 255 255 255 0 0 0 

0 0 0 100 100 100 100 100 0 0 0 255 255 255 255 255 0 0 0 100 100 100 100 100 0 0 0 255 255 255 255 255 0 0 0 255 255 255 255 255 0 0 0 255 255 255 255 255 0 0 0 
0 0 0 0 0 0 0 0 0 0 0 0 0 0 0 0 0 0 0 0 0 0 0 0 0 0 0 0 0 0 0 0 0 0 0 0 0 0 0 0 0 0 0 0 0 0 0 0 0 0 0 
0 0 0 0 0 0 0 0 0 0 0 0 0 0 0 0 0 0 0 0 0 0 0 0 0 0 0 0 0 0 0 0 0 0 0 0 0 0 0 0 0 0 0 0 0 0 0 0 0 0 0 
0 0 0 0 0 0 0 0 0 0 0 0 0 0 0 0 0 0 0 0 0 0 0 0 0 0 0 0 0 0 0 0 0 0 0 0 0 0 0 0 0 0 0 0 0 0 0 0 0 0 0 

0 0 0 255 255 255 255 255 0 0 0 255 255 255 255 255 0 0 0 100 100 100 100 100 0 0 0 255 255 255 255 255 0 0 0 255 255 255 255 255 0 0 0 255 255 255 255 255 0 0 0 

0 0 0 255 255 255 255 255 0 0 0 255 255 255 255 255 0 0 0 100 100 100 100 100 0 0 0 255 255 255 255 255 0 0 0 255 255 255 255 255 0 0 0 255 255 255 255 255 0 0 0 

0 0 0 255 255 255 255 255 0 0 0 255 255 255 255 255 0 0 0 100 100 100 100 100 0 0 0 255 255 255 255 255 0 0 0 255 255 255 255 255 0 0 0 255 255 255 255 255 0 0 0 

0 0 0 255 255 255 255 255 0 0 0 255 255 255 255 255 0 0 0 100 100 100 100 100 0 0 0 255 255 255 255 255 0 0 0 255 255 255 255 255 0 0 0 255 255 255 255 255 0 0 0 

0 0 0 255 255 255 255 255 0 0 0 255 255 255 255 255 0 0 0 100 100 100 100 100 0 0 0 255 255 255 255 255 0 0 0 255 255 255 255 255 0 0 0 255 255 255 255 255 0 0 0 
0 0 0 0 0 0 0 0 0 0 0 0 0 0 0 0 0 0 0 0 0 0 0 0 0 0 0 0 0 0 0 0 0 0 0 0 0 0 0 0 0 0 0 0 0 0 0 0 0 0 0 
0 0 0 0 0 0 0 0 0 0 0 0 0 0 0 0 0 0 0 0 0 0 0 0 0 0 0 0 0 0 0 0 0 0 0 0 0 0 0 0 0 0 0 0 0 0 0 0 0 0 0 
0 0 0 0 0 0 0 0 0 0 0 0 0 0 0 0 0 0 0 0 0 0 0 0 0 0 0 0 0 0 0 0 0 0 0 0 0 0 0 0 0 0 0 0 0 0 0 0 0 0 0 

0 0 0 255 255 255 255 255 0 0 0 100 100 100 100 100 0 0 0 100 100 100 100 100 0 0 0 100 100 100 100 100 0 0 0 100 100 100 100 100 0 0 0 100 100 100 100 100 0 0 0 

0 0 0 255 255 255 255 255 0 0 0 100 100 100 100 100 0 0 0 100 100 100 100 100 0 0 0 100 100 100 100 100 0 0 0 100 100 100 100 100 0 0 0 100 100 100 100 100 0 0 0 

0 0 0 255 255 255 255 255 0 0 0 100 100 100 100 100 0 0 0 100 100 100 100 100 0 0 0 100 100 100 100 100 0 0 0 100 100 100 100 100 0 0 0 100 100 100 100 100 0 0 0 

0 0 0 255 255 255 255 255 0 0 0 100 100 100 100 100 0 0 0 100 100 100 100 100 0 0 0 100 100 100 100 100 0 0 0 100 100 100 100 100 0 0 0 100 100 100 100 100 0 0 0 

0 0 0 255 255 255 255 255 0 0 0 100 100 100 100 100 0 0 0 100 100 100 100 100 0 0 0 100 100 100 100 100 0 0 0 100 100 100 100 100 0 0 0 100 100 100 100 100 0 0 0 
0 0 0 0 0 0 0 0 0 0 0 0 0 0 0 0 0 0 0 0 0 0 0 0 0 0 0 0 0 0 0 0 0 0 0 0 0 0 0 0 0 0 0 0 0 0 0 0 0 0 0 
0 0 0 0 0 0 0 0 0 0 0 0 0 0 0 0 0 0 0 0 0 0 0 0 0 0 0 0 0 0 0 0 0 0 0 0 0 0 0 0 0 0 0 0 0 0 0 0 0 0 0 
0 0 0 0 0 0 0 0 0 0 0 0 0 0 0 0 0 0 0 0 0 0 0 0 0 0 0 0 0 0 0 0 0 0 0 0 0 0 0 0 0 0 0 0 0 0 0 0 0 0 0 

0 0 0 255 255 255 255 255 0 0 0 255 255 255 255 255 0 0 0 100 100 100 100 100 0 0 0 255 255 255 255 255 0 0 0 100 100 100 100 100 0 0 0 255 255 255 255 255 0 0 0 

0 0 0 255 255 255 255 255 0 0 0 255 255 255 255 255 0 0 0 100 100 100 100 100 0 0 0 255 255 255 255 255 0 0 0 100 100 100 100 100 0 0 0 255 255 255 255 255 0 0 0 

0 0 0 255 255 255 255 255 0 0 0 255 255 255 255 255 0 0 0 100 100 100 100 100 0 0 0 255 255 255 255 255 0 0 0 100 100 100 100 100 0 0 0 255 255 255 255 255 0 0 0 

0 0 0 255 255 255 255 255 0 0 0 255 255 255 255 255 0 0 0 100 100 100 100 100 0 0 0 255 255 255 255 255 0 0 0 100 100 100 100 100 0 0 0 255 255 255 255 255 0 0 0 

0 0 0 255 255 255 255 255 0 0 0 255 255 255 255 255 0 0 0 100 100 100 100 100 0 0 0 255 255 255 255 255 0 0 0 100 100 100 100 100 0 0 0 255 255 255 255 255 0 0 0 
0 0 0 0 0 0 0 0 0 0 0 0 0 0 0 0 0 0 0 0 0 0 0 0 0 0 0 0 0 0 0 0 0 0 0 0 0 0 0 0 0 0 0 0 0 0 0 0 0 0 0 
0 0 0 0 0 0 0 0 0 0 0 0 0 0 0 0 0 0 0 0 0 0 0 0 0 0 0 0 0 0 0 0 0 0 0 0 0 0 0 0 0 0 0 0 0 0 0 0 0 0 0 
0 0 0 0 0 0 0 0 0 0 0 0 0 0 0 0 0 0 0 0 0 0 0 0 0 0 0 0 0 0 0 0 0 0 0 0 0 0 0 0 0 0 0 0 0 0 0 0 0 0 0 
