P2
43 30
255
0 0 0 0 0 0 0 0 0 0 0 0 0 0 0 0 0 0 0 0 0 0 0 0 0 0 0 0 0 0 0 0 0 0 0 0 0 0 0 0 0 0 0 
0 0 0 0 0 0 0 0 0 0 0 0 0 0 0 0 0 0 0 0 0 0 0 0 0 0 0 0 0 0 0 0 0 0 0 0 0 0 0 0 0 0 0 
0 0 0 0 0 0 0 0 0 0 0 0 0 0 0 0 0 0 0 0 0 0 0 0 0 0 0 0 0 0 0 0 0 0 0 0 0 0 0 0 0 0 0 
0 0 0 0 0 0 0 0 0 0 0 0 0 0 0 0 0 0 0 0 0 0 0 0 0 0 0 0 0 0 0 0 0 0 0 0 0 0 0 0 0 0 0 

0 0 0 0 100 100 100 100 100 100 100 100 100 0 0 0 0 100 100 100 100 100 100 100 100 100 0 0 0 0 100 100 100 100 100 100 100 100 100 0 0 0 0 

0 0 0 0 100 100 100 100 100 100 100 100 100 0 0 0 0 100 100 100 100 100 100 100 100 100 0 0 0 0 100 100 100 100 100 100 100 100 100 0 0 0 0 

0 0 0 0 100 100 100 100 100 100 100 100 100 0 0 0 0 100 100 100 100 100 100 100 100 100 0 0 0 0 100 100 100 100 100 100 100 100 100 0 0 0 0 

0 0 0 0 100 100 100 100 100 100 100 100 100 0 0 0 0 100 100 100 100 100 100 100 100 100 0 0 0 0 100 100 100 100 100 100 100 100 100 0 0 0 0 

0 0 0 0 100 100 100 100 100 100 100 100 100 0 0 0 0 100 100 100 100 100 100 100 100 100 0 0 0 0 100 100 100 100 100 100 100 100 100 0 0 0 0 

0 0 0 0 100 100 100 100 100 100 100 100 100 0 0 0 0 100 100 100 100 100 100 100 100 100 0 0 0 0 100 100 100 100 100 100 100 100 100 0 0 0 0 

0 0 0 0 100 100 100 100 100 100 100 100 100 0 0 0 0 100 100 100 100 100 100 100 100 100 0 0 0 0 100 100 100 100 100 100 100 100 100 0 0 0 0 

0 0 0 0 100 100 100 100 100 100 100 100 100 0 0 0 0 100 100 100 100 100 100 100 100 100 0 0 0 0 100 100 100 100 100 100 100 100 100 0 0 0 0 

0 0 0 0 100 100 100 100 100 100 100 100 100 0 0 0 0 100 100 100 100 100 100 100 100 100 0 0 0 0 100 100 100 100 100 100 100 100 100 0 0 0 0 
0 0 0 0 0 0 0 0 0 0 0 0 0 0 0 0 0 0 0 0 0 0 0 0 0 0 0 0 0 0 0 0 0 0 0 0 0 0 0 0 0 0 0 
0 0 0 0 0 0 0 0 0 0 0 0 0 0 0 0 0 0 0 0 0 0 0 0 0 0 0 0 0 0 0 0 0 0 0 0 0 0 0 0 0 0 0 
0 0 0 0 0 0 0 0 0 0 0 0 0 0 0 0 0 0 0 0 0 0 0 0 0 0 0 0 0 0 0 0 0 0 0 0 0 0 0 0 0 0 0 
0 0 0 0 0 0 0 0 0 0 0 0 0 0 0 0 0 0 0 0 0 0 0 0 0 0 0 0 0 0 0 0 0 0 0 0 0 0 0 0 0 0 0 

0 0 0 0 100 100 100 100 100 100 100 100 100 0 0 0 0 100 100 100 100 100 100 100 100 100 0 0 0 0 100 100 100 100 100 100 100 100 100 0 0 0 0 

0 0 0 0 100 100 100 100 100 100 100 100 100 0 0 0 0 100 100 100 100 100 100 100 100 100 0 0 0 0 100 100 100 100 100 100 100 100 100 0 0 0 0 

0 0 0 0 100 100 100 100 100 100 100 100 100 0 0 0 0 100 100 100 100 100 100 100 100 100 0 0 0 0 100 100 100 100 100 100 100 100 100 0 0 0 0 

0 0 0 0 100 100 100 100 100 100 100 100 100 0 0 0 0 100 100 100 100 100 100 100 100 100 0 0 0 0 100 100 100 100 100 100 100 100 100 0 0 0 0 

0 0 0 0 100 100 100 100 100 100 100 100 100 0 0 0 0 100 100 100 100 100 100 100 100 100 0 0 0 0 100 100 100 100 100 100 100 100 100 0 0 0 0 

0 0 0 0 100 100 100 100 100 100 100 100 100 0 0 0 0 100 100 100 100 100 100 100 100 100 0 0 0 0 100 100 100 100 100 100 100 100 100 0 0 0 0 

0 0 0 0 100 100 100 100 100 100 100 100 100 0 0 0 0 100 100 100 100 100 100 100 100 100 0 0 0 0 100 100 100 100 100 100 100 100 100 0 0 0 0 

0 0 0 0 100 100 100 100 100 100 100 100 100 0 0 0 0 100 100 100 100 100 100 100 100 100 0 0 0 0 100 100 100 100 100 100 100 100 100 0 0 0 0 

0 0 0 0 100 100 100 100 100 100 100 100 100 0 0 0 0 100 100 100 100 100 100 100 100 100 0 0 0 0 100 100 100 100 100 100 100 100 100 0 0 0 0 
0 0 0 0 0 0 0 0 0 0 0 0 0 0 0 0 0 0 0 0 0 0 0 0 0 0 0 0 0 0 0 0 0 0 0 0 0 0 0 0 0 0 0 
0 0 0 0 0 0 0 0 0 0 0 0 0 0 0 0 0 0 0 0 0 0 0 0 0 0 0 0 0 0 0 0 0 0 0 0 0 0 0 0 0 0 0 
0 0 0 0 0 0 0 0 0 0 0 0 0 0 0 0 0 0 0 0 0 0 0 0 0 0 0 0 0 0 0 0 0 0 0 0 0 0 0 0 0 0 0 
0 0 0 0 0 0 0 0 0 0 0 0 0 0 0 0 0 0 0 0 0 0 0 0 0 0 0 0 0 0 0 0 0 0 0 0 0 0 0 0 0 0 0 
