P2
14 13
255
  77  75  75  76  77  77  75  75  78  79  77  77  77  76  77  78  78  79  79  77
  77  79  80  78  77  79  79  77  77  78  79  79  78  79  78  78  80  78  77  77
  77  77  75  76  77  78  79  78  77  77  77  77  77  76  76  77  75  76  76  77
  78  77  77  78  77  77  77  76  77  78  76  76  77  77  77  76  77  78  76  77
  77  78  78  77  76  77  78  78  77  76  76  77  77  77  77  78  77  77  76  76
  79  77  75  76  77  78  77  77  77  78  77  77  76  76  77  76  74  77  77  77
  77  75  76  77  78  78  77  77  76  75  75  78  78  76  76  77  78  78  79  78
  78  77  76  76  77  77  76  76  77  78  79  78  76  77  78  76  75  78  78  77
  77  77  78  79  79  79  77  78  78  75  76  77  77  77  74  76  77  77  77  76
  75  76
