P2
13 5
255
  14  17  22  24  15  26  17  29  20  23  22  15  21  22  26  23  25  19  26  21
  28  21  22  20  15  22  29  33  28  28  25  27  25  26  20  18  27  21  27  21
  24  30  28  29  26  30  25  24  19  33  24  27  19  22  28  24  29  23  34  27
  31  27  32  22  25
