P2
16 16
255
  28  21  22  20  15  22  29  21  19  23  21  23  22  25  27  25  26  20  18  27
  21  27  32  25  22  27  25  21  18  20  26  30  25  24  19  33  24  27  31  23
  21  28  28  21  14  13  21  29  27  31  27  32  22  25  27  18  17  25  25  30
  22  18  22  28  27  36  31  32  24  28  31  23  20  25  24  32  28  26  27  25
  25  35  29  36  29  35  40  31  27  29  26  24  25  27  25  18  29  26  23  23
  30  31  23  19  25  31  33  31  30  24  19  21  31  28  26  30  35  34  26  21
  23  25  25  33  31  26  21  23  30  29  27  34  36  33  28  25  24  23  19  30
  29  26  23  26  27  27  26  30  30  29  28  29  28  25  21  27  26  25  25  28
  26  27  28  27  25  26  28  30  28  25  24  27  26  26  27  27  28  30  31  26
  25  26  29  28  23  22  24  30  28  27  28  26  28  30  32  25  24  26  28  25
  19  20  25  27  24  25  28  24  25  28  31  21  21  24  27  23  17  21  30  20
  18  20  26  24  26  23  20   9  19  26  25  24  26  29  28  18  24  22  13  16
  22  24  24  26  32  33  26  19  17  17  16  16  20  19  14  16
