P2
19 17
255
  86  87  89  96 103 118 126 130 132 121 109  99  96  94  97 102 106 111 122  83
  85  89  96 102 118 127 135 138 128 104  95  92  95  99 103 104 109 122  83  87
  92  96 103 119 128 133 133 124 110 100  96  97 100 106 110 115 128  86  90  96
  98 103 116 130 136 136 129 118 105  96  97 102 110 116 120 132  89  93  98 101
 105 114 127 136 140 135 131 117 111 108 109 114 123 127 138  91  95 101 103 104
 112 123 133 139 138 138 131 126 120 118 120 125 133 144  92  97 103 106 110 116
 122 132 139 138 144 139 136 132 130 127 130 137 144  93  98 104 107 110 117 122
 129 136 135 141 142 142 143 141 137 138 142 145  87  92  98 103 110 116 120 127
 134 134 140 145 145 145 143 142 137 140 138  90  86  91  95  99 111 119 129 136
 138 143 145 146 147 144 140 144 144 139  85  81  81  87  93 104 115 128 134 134
 137 139 143 144 144 143 145 144 140  83  75  72  77  83  95 103 118 132 137 133
 135 138 141 143 146 141 140 137  80  74  68  69  71  82  91 105 125 135 129 134
 134 143 143 143 135 131 131  78  71  66  66  71  83  91 104 123 134 133 134 137
 139 138 138 138 138 137  79  73  66  67  70  87  97 111 129 140 141 136 135 136
 136 136 136 141 143  83  76  69  67  70  84  97 114 134 143 143 142 136 129 128
 130 133 141 147  84  80  71  69  72  85  97 115 134 142 145 142 134 130 130 130
 134 140 144
