P2
16 6
255
 247 246 246 244 247 242 247 246 248 246 247 248 245 247 245 253 243 249 247 246
 242 248 249 247 244 248 246 242 248 249 246 242 242 249 247 247 242 247 246 244
 240 246 250 245 244 245 249 242 237 236 237 236 237 237 240 237 236 240 239 238
 239 245 237 236 224 227 220 223 227 220 223 222 227 220 219 231 228 219 221 226
 218 217 213 223 227 225 219 220 222 220 219 219 222 220 216 222
