P2
11 16
255
 248 245 252 250 241 247 249 249 244 248 250 247 244 247 249 246 246 249 249 243
 247 249 246 246 244 247 242 247 246 248 246 247 248 249 247 246 242 248 249 247
 244 248 246 242 249 247 247 242 247 246 244 240 246 250 245 236 237 236 237 237
 240 237 236 240 239 238 227 220 223 227 220 223 222 227 220 219 231 217 213 223
 227 225 219 220 222 220 219 219 209 217 218 221 216 219 213 217 207 217 217 217
 218 217 215 220 223 215 213 223 217 212 210 214 217 209 214 221 218 213 221 216
 215 205 204 201 203 206 208 206 204 204 204 201 193 199 197 198 194 190 193 195
 192 192 195 204 198 196 207 211 202 204 202 202 193 204 195 198 200 198 203 204
 202 195 178 186 187 199 203 199 199 202 207 206 197 186 194 201
