P2
14 19
255
  65  60  60  65  65  65  65  60  54  54  59  59  60  60  59  59  59  65  65  65
  65  57  51  51  51  51  54  57  57  54  57  59  62  65  65  54  47  45  47  51
  51  51  57  54  54  54  59  62  65  62  54  51  47  51  47  47  54  54  51  51
  51  54  62  62  54  51  51  51  51  47  51  47  47  47  47  51  59  59  59  54
  51  51  51  51  45  45  45  45  39  45  51  54  54  47  47  47  51  51  39  39
  39  39  39  39  47  51  54  47  45  45  45  45  33  39  33  33  33  33  39  51
  54  47  45  45  39  39  33  33  33  29  29  33  39  47  51  47  39  39  33  33
  29  29  29  29  29  26  33  45  51  45  39  33  29  29  29  29  26  26  26  26
  29  39  47  39  31  29  26  26  26  26  26  26  26  24  29  33  45  33  26  26
  23  23  23  24  24  24  24  23  24  33  39  29  24  23  23  22  23  22  23  23
  22  22  22  29  31  26  24  24  24  21  21  22  22  22  22  20  20  23  26  23
  23  24  24  23  21  21  20  20  19  20  20  22  23  22  24  23  23  28  22  21
  20  19  19  19  20  21  21  23  22  23  23  41  21  21  21  19  20  20  21  20
  21  21  22  24  32  46
