P2
9 9
255
 194 192 192 189 188 185 184 185 186 196 195 193 192 189 187 185 184 185 198 197
 195 192 190 188 186 184 184 199 197 196 193 189 187 186 184 184 197 196 195 192
 188 185 185 183 184 196 195 193 189 186 183 184 183 184 194 192 189 185 182 180
 181 181 183 190 189 186 183 180 179 178 177 179 184 185 184 182 179 177 176 177
 178
