P2
8 17
255
  84  81  80  76  73  70  65  58  86  80  80  73  68  65  63  54  83  75  75  71
  64  62  60  50  81  79  74  69  64  57  54  49  80  76  71  66  62  54  49  44
  77  72  67  61  58  54  48  45  73  68  65  59  56  53  48  46  69  66  63  59
  55  50  48  46  68  65  61  56  51  47  46  46  67  63  58  51  46  43  44  46
  66  61  55  50  44  40  39  43  66  59  52  50  48  45  37  35  63  55  49  49
  53  53  43  33  57  53  46  52  59  59  47  36  52  50  46  46  49  50  47  42
  49  45  39  37  37  37  42  46  48  40  33  30  29  30  32  39
