P2
11 4
255
 138 132 126 127 131 135 132 127 121 119 121 145 140 131 127 130 135 133 129 124
 121 123 151 147 135 126 127 133 129 128 127 127 129 151 147 134 122 121 126 130
 131 130 129 128
