P2
5 20
255
  95  80  74  62  56  92  68  61  51  48  87  60  50  47  46 104  76  66  66  62
 124 116 113 115 111 118 116 117 115 117  84  84  80  71  75  60  64  60  51  53
  56  55  53  48  48  98  87  81  79  81 139 132 128 127 130 139 138 139 138 136
 125 121 126 125 127 102  86  89  90  93  91  75  77  78  79  96  86  89  87  85
  95  83  86  87  85  90  79  84  85  85  91  83  87  86  87  92  82  86  82  82
