P2
6 8
255
  60  51  53  56  58  57  53  48  48  51  53  52  81  79  81  83  85  83 128 127
 130 131 131 130 139 138 136 135 133 134 126 125 127 128 128 127  89  90  93  94
  94  93  77  78  79  79  78  77
