P2
1 20
255
 118 152 242 249 249 247 254 254 251 252 254 254 254 253 253 255 254 254 254 255
