P2
17 20
255
  76  77  76  76  76  76  76  76  77  77  76  77  77  76  78  77  77  77  77  77
  75  77  77  77  77  77  76  76  76  77  77  77  76  75  79  79  78  75  77  78
  78  78  78  76  76  77  77  77  77  76  76  78  79  79  78  77  77  77  77  77
  76  76  76  76  76  76  76  77  75  78  78  77  77  77  77  77  77  77  78  77
  77  76  76  76  78  76  76  76  75  77  78  76  76  77  77  77  76  76  75  75
  75  77  77  75  75  76  77  77  75  75  78  79  77  77  77  76  77  77  78  77
  78  78  79  79  77  77  79  80  78  77  79  79  77  77  77  78  77  78  79  79
  78  79  78  78  80  78  77  77  77  77  77  77  76  75  76  77  78  79  78  77
  77  77  77  77  76  76  77  78  79  75  75  76  76  77  78  77  77  78  77  77
  77  76  77  78  77  78  77  76  76  77  77  77  76  77  78  76  77  77  78  78
  77  77  77  77  76  77  78  78  77  76  76  77  77  77  77  78  77  77  78  78
  78  76  76  79  77  75  76  77  78  77  77  77  78  77  77  79  78  78  76  76
  77  76  74  77  77  77  77  75  76  77  78  78  77  75  75  77  77  76  75  75
  78  78  76  76  77  78  78  79  78  77  76  77  78  77  76  76  77  77  76  76
  77  78  79  78  76  77  78  77  78  78  76  75  78  78  77  77  77  78  79  79
  79  77  78  80  78  78  78  75  76  77  77  77  74  76  77  77  77  76  75  76
  78  78  79  78  78  76  75  75  77  78  78  78  76  76  77  77  78  79  79  80
