P2
18 20
255
  77  83  83  84  82  82  89  99 113 126 135 133 132 125 128 132 135 134  85  90
  90  87  92  94  99 109 121 125 132 133 133 129 131 134 136 138  83  86  87  87
  93 100 107 118 127 131 132 131 129 132 137 138 138 138  85  90  91  91  98 104
 109 115 120 125 126 130 134 138 142 143 144 140  84  91  90  89  96 105 110 113
 118 123 126 131 134 138 137 136 130 130  84  90  89  90  98 104 108 111 115 123
 131 134 132 136 133 128 118 118  84  91  91  95  98 103 104 103 114 125 133 139
 136 130 124 118 110 104  83  89  90  92  96 100 103 104 114 125 132 137 130 122
 114 107 102  95  87  94  94  89  93  97 100 104 114 125 132 130 124 117 109 101
  96  95  89  91  88  87  89  92  96 103 117 127 134 134 125 111 104  96  92  96
  89  91  88  86  87  89  96 103 118 126 130 132 121 109  99  96  94  97  89  91
  88  83  85  89  96 102 118 127 135 138 128 104  95  92  95  99  89  93  88  83
  87  92  96 103 119 128 133 133 124 110 100  96  97 100  91  92  90  86  90  96
  98 103 116 130 136 136 129 118 105  96  97 102  90  93  91  89  93  98 101 105
 114 127 136 140 135 131 117 111 108 109  90  93  90  91  95 101 103 104 112 123
 133 139 138 138 131 126 120 118  91  93  91  92  97 103 106 110 116 122 132 139
 138 144 139 136 132 130  91  94  91  93  98 104 107 110 117 122 129 136 135 141
 142 142 143 141  91  94  91  87  92  98 103 110 116 120 127 134 134 140 145 145
 145 143  86  92  90  90  86  91  95  99 111 119 129 136 138 143 145 146 147 144
