P2
16 16
255
 145 140 141 142 143 146 148 145 137 138 143 146 145 144 144 144 146 146 146 148
 143 144 150 144 143 142 144 147 146 144 144 146 149 144 143 146 147 149 149 147
 144 151 152 145 135 147 152 149 146 146 146 147 148 148 149 145 145 147 147 148
 137 146 150 148 142 145 145 146 151 149 150 149 150 149 148 150 147 149 149 149
 147 144 144 146 147 147 148 151 152 149 151 145 147 145 141 140 145 141 141 141
 141 142 142 144 145 148 148 146 145 141 148 149 147 147 148 142 145 145 143 142
 143 145 148 151 152 148 149 145 144 144 146 143 146 148 146 144 143 147 142 148
 151 151 149 146 142 140 141 142 149 147 146 149 146 143 141 141 147 151 151 146
 145 140 141 143 144 141 140 140 145 145 143 143 142 144 146 145 148 144 146 139
 139 142 143 138 143 144 147 146 146 145 147 149 139 143 146 141 144 142 145 146
 147 148 144 143 146 147 152 144 147 142 146 142 149 149 150 148 149 144 143 150
 149 147 151 145 145 145 146 147 149 149 153 147 144 144 145 149 151 151 148 147
 150 153 147 150 157 158 151 149 145 151 149 150 142 143 142 145
