P2
17 8
255
  32  35  49  60  62  65  65  65  60  60  65  65  65  65  60  54  54  39  51  65
  65  65  65  62  59  59  59  65  65  65  65  57  51  51  54  59  59  54  57  54
  54  57  54  57  59  62  65  65  54  47  45  63  63  54  51  51  54  54  57  54
  54  54  59  62  65  62  54  51  85  78  63  51  49  51  54  54  54  51  51  51
  54  62  62  54  51  73  70  63  54  47  44  47  51  47  47  47  47  51  59  59
  59  54  73  70  63  49  45  39  45  45  45  45  45  39  45  51  54  54  47  67
  63  63  53  45  39  39  39  39  39  39  39  39  47  51  54  47
