P2
17 10
255
 245 248 249 247 244 247 249 246 246 249 249 243 247 249 247 245 248 248 248 247
 246 246 244 247 242 247 246 248 246 247 248 245 247 245 249 246 243 249 247 246
 242 248 249 247 244 248 246 242 248 249 246 248 248 242 249 247 247 242 247 246
 244 240 246 250 245 244 245 249 241 238 237 236 237 236 237 237 240 237 236 240
 239 238 239 245 237 226 224 224 227 220 223 227 220 223 222 227 220 219 231 228
 219 221 214 218 218 217 213 223 227 225 219 220 222 220 219 219 222 220 216 213
 211 212 209 217 218 221 216 219 213 217 207 217 217 217 212 214 218 215 212 217
 218 217 215 220 223 215 213 223 217 212 208 222 216 217 215 207 210 214 217 209
 214 221 218 213 221 216 215 208 213 215
