P2
12 11
255
  81  80  76  73  70  65  58  51  46  42  31  32  80  80  73  68  65  63  54  48
  44  39  29  30  75  75  71  64  62  60  50  44  40  34  32  31  79  74  69  64
  57  54  49  44  39  36  36  33  76  71  66  62  54  49  44  42  40  38  36  35
  72  67  61  58  54  48  45  44  42  39  36  35  68  65  59  56  53  48  46  45
  43  42  38  36  66  63  59  55  50  48  46  44  43  42  40  38  65  61  56  51
  47  46  46  44  43  42  40  37  63  58  51  46  43  44  46  45  44  43  41  38
  61  55  50  44  40  39  43  46  46  44  40  38
