P2
4 8
255
  29  29  29  29  31  30  30  30  32  31  31  32  35  35  35  35  36  36  36  36
  37  36  36  36  37  39  41  41  40  41  41  40
