P2
15 13
255
 106 104 104 104 104 104 104 104 104 104 104 103 104 105 104 106 106 105 105 107
 107 107 107 106 105 104 105 104 104 103 108 109 108 108 108 107 108 108 108 107
 104 105 106 105 104 110 110 109 110 107 106 108 109 109 109 105 103 107 108 107
 112 111 109 109 109 109 109 110 109 108 106 106 107 107 108 111 111 108 109 111
 111 110 111 109 108 108 108 108 107 107 110 109 109 111 110 110 111 111 110 109
 109 109 109 109 107 111 110 110 111 110 110 112 112 111 110 110 109 110 110 109
 112 112 113 113 112 111 112 112 111 111 111 110 111 111 110 113 115 115 113 114
 114 114 113 112 112 112 110 111 112 112 113 116 116 115 115 114 113 113 114 115
 114 111 113 113 113 115 115 118 118 116 116 115 113 115 116 116 114 115 115 115
 118 119 120 118 118 119 118 117 117 118 118 118 117 118 117
