P2
6 4
255
 115 111 110 107 104 103 115 117 119 121 121 122  71  75  77  80  82  82  51  53
  56  58  57  57
