P2
13 10
255
  61  59  59  58  57  56  53  50  48  44  41  40  39  44  45  44  43  42  44  43
  42  41  42  42  41  42  42  43  43  44  44  44  44  43  44  45  45  46  50  52
  54  55  54  54  55  57  57  57  58  57  59  59  69  71  73  75  77  79  80  78
  77  76  75  73  72  84  87  89  91  92  92  91  93  92  89  90  88  88  87  89
  90  92  94  94  93  95  94  93  91  91  91  78  80  83  86  89  91  92  94  94
  93  91  92  91  70  71  73  77  81  86  90  93  94  95  92  93  93  81  76  73
  74  76  80  82  88  92  94  93  91  91
