P2
10 10
255
0 10 20 30 40 50 60 70 80 90
10 20 30 40 50 60 70 80 90 100
20 30 40 50 60 70 80 90 100 110
30 40 50 60 70 80 90 100 110 120
40 50 60 70 80 90 100 110 120 130
50 60 70 80 90 100 110 120 130 140
60 70 80 90 100 110 120 130 140 150
70 80 90 100 110 -120 130 140 150 160
80 90 100 110 120 130 140 150 160 170
90 100 110 120 130 140 150 160 170 180
